<svg width="669" height="460" viewBox="0 0 669 460" fill="none" xmlns="http://www.w3.org/2000/svg">
<g clip-path="url(#clip0_909_81)">
<rect width="669" height="460" rx="39" fill="#121212" fill-opacity="0.22"/>
<g filter="url(#filter0_f_909_81)">
<circle cx="116" cy="76" r="143" fill="#D9D9D9" fill-opacity="0.08"/>
</g>
<rect x="47" y="33" width="575" height="90" rx="20" fill="#121212"/>
<circle cx="105" cy="78" r="25" fill="#1E1E1E"/>
<path d="M54.0455 189L47.6818 165.727H50.5455L55.4091 184.682H55.6364L60.5909 165.727H63.7727L68.7273 184.682H68.9545L73.8182 165.727H76.6818L70.3182 189H67.4091L62.2727 170.455H62.0909L56.9545 189H54.0455ZM82.5114 178.5V189H79.8295V165.727H82.5114V174.273H82.7386C83.1477 173.371 83.7614 172.655 84.5795 172.125C85.4053 171.587 86.5038 171.318 87.875 171.318C89.0644 171.318 90.1061 171.557 91 172.034C91.8939 172.504 92.5871 173.227 93.0795 174.205C93.5795 175.174 93.8295 176.409 93.8295 177.909V189H91.1477V178.091C91.1477 176.705 90.7879 175.633 90.0682 174.875C89.3561 174.11 88.3674 173.727 87.1023 173.727C86.2235 173.727 85.4356 173.913 84.7386 174.284C84.0492 174.655 83.5038 175.197 83.1023 175.909C82.7083 176.621 82.5114 177.485 82.5114 178.5ZM103.872 189.409C102.766 189.409 101.762 189.201 100.861 188.784C99.9593 188.36 99.2434 187.75 98.7131 186.955C98.1828 186.152 97.9176 185.182 97.9176 184.045C97.9176 183.045 98.1146 182.235 98.5085 181.614C98.9025 180.985 99.429 180.492 100.088 180.136C100.747 179.78 101.474 179.515 102.27 179.341C103.073 179.159 103.88 179.015 104.69 178.909C105.751 178.773 106.611 178.67 107.27 178.602C107.937 178.527 108.421 178.402 108.724 178.227C109.035 178.053 109.19 177.75 109.19 177.318V177.227C109.19 176.106 108.884 175.235 108.27 174.614C107.664 173.992 106.743 173.682 105.509 173.682C104.228 173.682 103.224 173.962 102.497 174.523C101.77 175.083 101.259 175.682 100.963 176.318L98.4176 175.409C98.8722 174.348 99.4782 173.523 100.236 172.932C101.001 172.333 101.834 171.917 102.736 171.682C103.645 171.439 104.539 171.318 105.418 171.318C105.978 171.318 106.622 171.386 107.349 171.523C108.084 171.652 108.793 171.92 109.474 172.33C110.164 172.739 110.736 173.356 111.19 174.182C111.645 175.008 111.872 176.114 111.872 177.5V189H109.19V186.636H109.054C108.872 187.015 108.569 187.42 108.145 187.852C107.721 188.284 107.156 188.652 106.452 188.955C105.747 189.258 104.887 189.409 103.872 189.409ZM104.281 187C105.342 187 106.236 186.792 106.963 186.375C107.698 185.958 108.251 185.42 108.622 184.761C109.001 184.102 109.19 183.409 109.19 182.682V180.227C109.077 180.364 108.827 180.489 108.44 180.602C108.062 180.708 107.622 180.803 107.122 180.886C106.63 180.962 106.149 181.03 105.679 181.091C105.217 181.144 104.842 181.189 104.554 181.227C103.857 181.318 103.205 181.466 102.599 181.67C102.001 181.867 101.516 182.167 101.145 182.568C100.781 182.962 100.599 183.5 100.599 184.182C100.599 185.114 100.944 185.818 101.634 186.295C102.33 186.765 103.213 187 104.281 187ZM124.358 171.545V173.818H115.312V171.545H124.358ZM117.949 167.364H120.631V184C120.631 184.758 120.741 185.326 120.96 185.705C121.188 186.076 121.475 186.326 121.824 186.455C122.18 186.576 122.555 186.636 122.949 186.636C123.244 186.636 123.487 186.621 123.676 186.591C123.866 186.553 124.017 186.523 124.131 186.5L124.676 188.909C124.494 188.977 124.241 189.045 123.915 189.114C123.589 189.189 123.176 189.227 122.676 189.227C121.919 189.227 121.176 189.064 120.449 188.739C119.729 188.413 119.131 187.917 118.653 187.25C118.184 186.583 117.949 185.742 117.949 184.727V167.364ZM131.662 165.727V167.773C131.662 168.394 131.548 169.057 131.321 169.761C131.101 170.458 130.776 171.136 130.344 171.795C129.92 172.447 129.404 173.015 128.798 173.5L127.344 172.318C127.821 171.636 128.234 170.928 128.582 170.193C128.938 169.451 129.116 168.659 129.116 167.818V165.727H131.662ZM145.099 175.455L142.69 176.136C142.539 175.735 142.315 175.345 142.02 174.966C141.732 174.58 141.338 174.261 140.838 174.011C140.338 173.761 139.698 173.636 138.918 173.636C137.849 173.636 136.959 173.883 136.247 174.375C135.543 174.86 135.19 175.477 135.19 176.227C135.19 176.894 135.433 177.42 135.918 177.807C136.402 178.193 137.16 178.515 138.19 178.773L140.781 179.409C142.342 179.788 143.505 180.367 144.27 181.148C145.035 181.92 145.418 182.917 145.418 184.136C145.418 185.136 145.13 186.03 144.554 186.818C143.986 187.606 143.19 188.227 142.168 188.682C141.145 189.136 139.955 189.364 138.599 189.364C136.819 189.364 135.346 188.977 134.179 188.205C133.012 187.432 132.274 186.303 131.963 184.818L134.509 184.182C134.751 185.121 135.209 185.826 135.884 186.295C136.565 186.765 137.455 187 138.554 187C139.804 187 140.796 186.735 141.531 186.205C142.274 185.667 142.645 185.023 142.645 184.273C142.645 183.667 142.433 183.159 142.009 182.75C141.584 182.333 140.933 182.023 140.054 181.818L137.145 181.136C135.546 180.758 134.372 180.17 133.622 179.375C132.88 178.572 132.509 177.568 132.509 176.364C132.509 175.379 132.785 174.508 133.338 173.75C133.899 172.992 134.66 172.398 135.622 171.966C136.592 171.534 137.69 171.318 138.918 171.318C140.645 171.318 142.001 171.697 142.986 172.455C143.978 173.212 144.683 174.212 145.099 175.455ZM165.545 189.364C163.97 189.364 162.587 188.989 161.398 188.239C160.216 187.489 159.292 186.439 158.625 185.091C157.966 183.742 157.636 182.167 157.636 180.364C157.636 178.545 157.966 176.958 158.625 175.602C159.292 174.246 160.216 173.193 161.398 172.443C162.587 171.693 163.97 171.318 165.545 171.318C167.121 171.318 168.5 171.693 169.682 172.443C170.871 173.193 171.795 174.246 172.455 175.602C173.121 176.958 173.455 178.545 173.455 180.364C173.455 182.167 173.121 183.742 172.455 185.091C171.795 186.439 170.871 187.489 169.682 188.239C168.5 188.989 167.121 189.364 165.545 189.364ZM165.545 186.955C166.742 186.955 167.727 186.648 168.5 186.034C169.273 185.42 169.845 184.614 170.216 183.614C170.587 182.614 170.773 181.53 170.773 180.364C170.773 179.197 170.587 178.11 170.216 177.102C169.845 176.095 169.273 175.28 168.5 174.659C167.727 174.038 166.742 173.727 165.545 173.727C164.348 173.727 163.364 174.038 162.591 174.659C161.818 175.28 161.246 176.095 160.875 177.102C160.504 178.11 160.318 179.197 160.318 180.364C160.318 181.53 160.504 182.614 160.875 183.614C161.246 184.614 161.818 185.42 162.591 186.034C163.364 186.648 164.348 186.955 165.545 186.955ZM188.548 181.864V171.545H191.23V189H188.548V186.045H188.366C187.957 186.932 187.321 187.686 186.457 188.307C185.594 188.92 184.503 189.227 183.185 189.227C182.094 189.227 181.124 188.989 180.276 188.511C179.427 188.027 178.76 187.299 178.276 186.33C177.791 185.352 177.548 184.121 177.548 182.636V171.545H180.23V182.455C180.23 183.727 180.586 184.742 181.298 185.5C182.018 186.258 182.935 186.636 184.048 186.636C184.715 186.636 185.393 186.466 186.082 186.125C186.779 185.784 187.363 185.261 187.832 184.557C188.31 183.852 188.548 182.955 188.548 181.864ZM196.142 189V171.545H198.733V174.182H198.915C199.233 173.318 199.809 172.617 200.642 172.08C201.475 171.542 202.415 171.273 203.46 171.273C203.657 171.273 203.903 171.277 204.199 171.284C204.494 171.292 204.718 171.303 204.869 171.318V174.045C204.778 174.023 204.57 173.989 204.244 173.943C203.926 173.89 203.589 173.864 203.233 173.864C202.384 173.864 201.627 174.042 200.96 174.398C200.301 174.746 199.778 175.231 199.392 175.852C199.013 176.466 198.824 177.167 198.824 177.955V189H196.142ZM224.139 189.364C222.503 189.364 221.094 188.977 219.912 188.205C218.73 187.432 217.821 186.367 217.185 185.011C216.548 183.655 216.23 182.106 216.23 180.364C216.23 178.591 216.556 177.027 217.207 175.67C217.866 174.307 218.783 173.242 219.957 172.477C221.139 171.705 222.518 171.318 224.094 171.318C225.321 171.318 226.427 171.545 227.412 172C228.397 172.455 229.204 173.091 229.832 173.909C230.461 174.727 230.851 175.682 231.003 176.773H228.321C228.116 175.977 227.662 175.273 226.957 174.659C226.26 174.038 225.321 173.727 224.139 173.727C223.094 173.727 222.177 174 221.389 174.545C220.609 175.083 219.999 175.845 219.56 176.83C219.128 177.807 218.912 178.955 218.912 180.273C218.912 181.621 219.124 182.795 219.548 183.795C219.98 184.795 220.586 185.572 221.366 186.125C222.154 186.678 223.079 186.955 224.139 186.955C224.836 186.955 225.469 186.833 226.037 186.591C226.605 186.348 227.086 186 227.48 185.545C227.874 185.091 228.154 184.545 228.321 183.909H231.003C230.851 184.939 230.476 185.867 229.878 186.693C229.287 187.511 228.503 188.163 227.526 188.648C226.556 189.125 225.427 189.364 224.139 189.364ZM245.923 181.864V171.545H248.605V189H245.923V186.045H245.741C245.332 186.932 244.696 187.686 243.832 188.307C242.969 188.92 241.878 189.227 240.56 189.227C239.469 189.227 238.499 188.989 237.651 188.511C236.802 188.027 236.135 187.299 235.651 186.33C235.166 185.352 234.923 184.121 234.923 182.636V171.545H237.605V182.455C237.605 183.727 237.961 184.742 238.673 185.5C239.393 186.258 240.31 186.636 241.423 186.636C242.09 186.636 242.768 186.466 243.457 186.125C244.154 185.784 244.738 185.261 245.207 184.557C245.685 183.852 245.923 182.955 245.923 181.864ZM253.517 189V171.545H256.108V174.182H256.29C256.608 173.318 257.184 172.617 258.017 172.08C258.85 171.542 259.79 171.273 260.835 171.273C261.032 171.273 261.278 171.277 261.574 171.284C261.869 171.292 262.093 171.303 262.244 171.318V174.045C262.153 174.023 261.945 173.989 261.619 173.943C261.301 173.89 260.964 173.864 260.608 173.864C259.759 173.864 259.002 174.042 258.335 174.398C257.676 174.746 257.153 175.231 256.767 175.852C256.388 176.466 256.199 177.167 256.199 177.955V189H253.517ZM265.423 189V171.545H268.014V174.182H268.196C268.514 173.318 269.09 172.617 269.923 172.08C270.757 171.542 271.696 171.273 272.741 171.273C272.938 171.273 273.185 171.277 273.48 171.284C273.776 171.292 273.999 171.303 274.151 171.318V174.045C274.06 174.023 273.851 173.989 273.526 173.943C273.207 173.89 272.87 173.864 272.514 173.864C271.666 173.864 270.908 174.042 270.241 174.398C269.582 174.746 269.06 175.231 268.673 175.852C268.295 176.466 268.105 177.167 268.105 177.955V189H265.423ZM284.116 189.364C282.435 189.364 280.984 188.992 279.764 188.25C278.552 187.5 277.616 186.455 276.957 185.114C276.306 183.765 275.98 182.197 275.98 180.409C275.98 178.621 276.306 177.045 276.957 175.682C277.616 174.311 278.533 173.242 279.707 172.477C280.889 171.705 282.268 171.318 283.844 171.318C284.753 171.318 285.651 171.47 286.537 171.773C287.423 172.076 288.23 172.568 288.957 173.25C289.685 173.924 290.264 174.818 290.696 175.932C291.128 177.045 291.344 178.417 291.344 180.045V181.182H277.889V178.864H288.616C288.616 177.879 288.42 177 288.026 176.227C287.639 175.455 287.086 174.845 286.366 174.398C285.654 173.951 284.813 173.727 283.844 173.727C282.776 173.727 281.851 173.992 281.071 174.523C280.298 175.045 279.704 175.727 279.287 176.568C278.87 177.409 278.662 178.311 278.662 179.273V180.818C278.662 182.136 278.889 183.254 279.344 184.17C279.806 185.08 280.446 185.773 281.264 186.25C282.082 186.72 283.033 186.955 284.116 186.955C284.821 186.955 285.457 186.856 286.026 186.659C286.601 186.455 287.098 186.152 287.514 185.75C287.931 185.341 288.253 184.833 288.48 184.227L291.071 184.955C290.798 185.833 290.34 186.606 289.696 187.273C289.052 187.932 288.257 188.447 287.31 188.818C286.363 189.182 285.298 189.364 284.116 189.364ZM298.105 178.5V189H295.423V171.545H298.014V174.273H298.241C298.651 173.386 299.272 172.674 300.105 172.136C300.938 171.591 302.014 171.318 303.332 171.318C304.514 171.318 305.548 171.561 306.435 172.045C307.321 172.523 308.01 173.25 308.503 174.227C308.995 175.197 309.241 176.424 309.241 177.909V189H306.56V178.091C306.56 176.72 306.204 175.652 305.491 174.886C304.779 174.114 303.802 173.727 302.56 173.727C301.704 173.727 300.938 173.913 300.264 174.284C299.598 174.655 299.071 175.197 298.685 175.909C298.298 176.621 298.105 177.485 298.105 178.5ZM321.733 171.545V173.818H312.688V171.545H321.733ZM315.324 167.364H318.006V184C318.006 184.758 318.116 185.326 318.335 185.705C318.563 186.076 318.85 186.326 319.199 186.455C319.555 186.576 319.93 186.636 320.324 186.636C320.619 186.636 320.862 186.621 321.051 186.591C321.241 186.553 321.392 186.523 321.506 186.5L322.051 188.909C321.869 188.977 321.616 189.045 321.29 189.114C320.964 189.189 320.551 189.227 320.051 189.227C319.294 189.227 318.551 189.064 317.824 188.739C317.104 188.413 316.506 187.917 316.028 187.25C315.559 186.583 315.324 185.742 315.324 184.727V167.364ZM334.767 189V171.545H337.358V174.182H337.54C337.858 173.318 338.434 172.617 339.267 172.08C340.1 171.542 341.04 171.273 342.085 171.273C342.282 171.273 342.528 171.277 342.824 171.284C343.119 171.292 343.343 171.303 343.494 171.318V174.045C343.403 174.023 343.195 173.989 342.869 173.943C342.551 173.89 342.214 173.864 341.858 173.864C341.009 173.864 340.252 174.042 339.585 174.398C338.926 174.746 338.403 175.231 338.017 175.852C337.638 176.466 337.449 177.167 337.449 177.955V189H334.767ZM357.673 181.864V171.545H360.355V189H357.673V186.045H357.491C357.082 186.932 356.446 187.686 355.582 188.307C354.719 188.92 353.628 189.227 352.31 189.227C351.219 189.227 350.249 188.989 349.401 188.511C348.552 188.027 347.885 187.299 347.401 186.33C346.916 185.352 346.673 184.121 346.673 182.636V171.545H349.355V182.455C349.355 183.727 349.711 184.742 350.423 185.5C351.143 186.258 352.06 186.636 353.173 186.636C353.84 186.636 354.518 186.466 355.207 186.125C355.904 185.784 356.488 185.261 356.957 184.557C357.435 183.852 357.673 182.955 357.673 181.864ZM367.949 178.5V189H365.267V171.545H367.858V174.273H368.085C368.494 173.386 369.116 172.674 369.949 172.136C370.782 171.591 371.858 171.318 373.176 171.318C374.358 171.318 375.392 171.561 376.278 172.045C377.165 172.523 377.854 173.25 378.347 174.227C378.839 175.197 379.085 176.424 379.085 177.909V189H376.403V178.091C376.403 176.72 376.047 175.652 375.335 174.886C374.623 174.114 373.646 173.727 372.403 173.727C371.547 173.727 370.782 173.913 370.108 174.284C369.441 174.655 368.915 175.197 368.528 175.909C368.142 176.621 367.949 177.485 367.949 178.5ZM387.94 189L382.622 171.545H385.44L389.213 184.909H389.395L393.122 171.545H395.986L399.668 184.864H399.849L403.622 171.545H406.44L401.122 189H398.486L394.668 175.591H394.395L390.577 189H387.94ZM415.122 189.409C414.016 189.409 413.012 189.201 412.111 188.784C411.209 188.36 410.493 187.75 409.963 186.955C409.433 186.152 409.168 185.182 409.168 184.045C409.168 183.045 409.365 182.235 409.759 181.614C410.152 180.985 410.679 180.492 411.338 180.136C411.997 179.78 412.724 179.515 413.52 179.341C414.323 179.159 415.13 179.015 415.94 178.909C417.001 178.773 417.861 178.67 418.52 178.602C419.187 178.527 419.671 178.402 419.974 178.227C420.285 178.053 420.44 177.75 420.44 177.318V177.227C420.44 176.106 420.134 175.235 419.52 174.614C418.914 173.992 417.993 173.682 416.759 173.682C415.478 173.682 414.474 173.962 413.747 174.523C413.02 175.083 412.509 175.682 412.213 176.318L409.668 175.409C410.122 174.348 410.728 173.523 411.486 172.932C412.251 172.333 413.084 171.917 413.986 171.682C414.895 171.439 415.789 171.318 416.668 171.318C417.228 171.318 417.872 171.386 418.599 171.523C419.334 171.652 420.043 171.92 420.724 172.33C421.414 172.739 421.986 173.356 422.44 174.182C422.895 175.008 423.122 176.114 423.122 177.5V189H420.44V186.636H420.304C420.122 187.015 419.819 187.42 419.395 187.852C418.971 188.284 418.406 188.652 417.702 188.955C416.997 189.258 416.137 189.409 415.122 189.409ZM415.531 187C416.592 187 417.486 186.792 418.213 186.375C418.948 185.958 419.501 185.42 419.872 184.761C420.251 184.102 420.44 183.409 420.44 182.682V180.227C420.327 180.364 420.077 180.489 419.69 180.602C419.312 180.708 418.872 180.803 418.372 180.886C417.88 180.962 417.399 181.03 416.929 181.091C416.467 181.144 416.092 181.189 415.804 181.227C415.107 181.318 414.455 181.466 413.849 181.67C413.251 181.867 412.766 182.167 412.395 182.568C412.031 182.962 411.849 183.5 411.849 184.182C411.849 185.114 412.194 185.818 412.884 186.295C413.58 186.765 414.463 187 415.531 187ZM429.119 195.545C428.665 195.545 428.259 195.508 427.903 195.432C427.547 195.364 427.301 195.295 427.165 195.227L427.847 192.864C428.498 193.03 429.074 193.091 429.574 193.045C430.074 193 430.517 192.777 430.903 192.375C431.297 191.981 431.657 191.341 431.983 190.455L432.483 189.091L426.028 171.545H428.938L433.756 185.455H433.938L438.756 171.545H441.665L434.256 191.545C433.922 192.447 433.509 193.193 433.017 193.784C432.525 194.383 431.953 194.826 431.301 195.114C430.657 195.402 429.93 195.545 429.119 195.545ZM448.705 182.455V182.318C448.72 180.871 448.871 179.72 449.159 178.864C449.447 178.008 449.856 177.314 450.386 176.784C450.917 176.254 451.553 175.765 452.295 175.318C452.742 175.045 453.144 174.723 453.5 174.352C453.856 173.973 454.136 173.538 454.341 173.045C454.553 172.553 454.659 172.008 454.659 171.409C454.659 170.667 454.485 170.023 454.136 169.477C453.788 168.932 453.322 168.511 452.739 168.216C452.155 167.92 451.508 167.773 450.795 167.773C450.174 167.773 449.576 167.902 449 168.159C448.424 168.417 447.943 168.822 447.557 169.375C447.17 169.928 446.947 170.652 446.886 171.545H444.023C444.083 170.258 444.417 169.155 445.023 168.239C445.636 167.322 446.443 166.621 447.443 166.136C448.451 165.652 449.568 165.409 450.795 165.409C452.129 165.409 453.288 165.674 454.273 166.205C455.265 166.735 456.03 167.462 456.568 168.386C457.114 169.311 457.386 170.364 457.386 171.545C457.386 172.379 457.258 173.133 457 173.807C456.75 174.481 456.386 175.083 455.909 175.614C455.439 176.144 454.871 176.614 454.205 177.023C453.538 177.439 453.004 177.879 452.602 178.341C452.201 178.795 451.909 179.337 451.727 179.966C451.545 180.595 451.447 181.379 451.432 182.318V182.455H448.705ZM450.159 189.182C449.598 189.182 449.117 188.981 448.716 188.58C448.314 188.178 448.114 187.697 448.114 187.136C448.114 186.576 448.314 186.095 448.716 185.693C449.117 185.292 449.598 185.091 450.159 185.091C450.72 185.091 451.201 185.292 451.602 185.693C452.004 186.095 452.205 186.576 452.205 187.136C452.205 187.508 452.11 187.848 451.92 188.159C451.739 188.47 451.492 188.72 451.182 188.909C450.879 189.091 450.538 189.182 450.159 189.182Z" fill="#E4E4E4" fill-opacity="0.8"/>
<line x1="47" y1="213.5" x2="622" y2="213.5" stroke="#E4E4E4" stroke-opacity="0.6"/>
<circle cx="65" cy="275" r="18" fill="#143D29"/>
<path d="M73 269L62 280L57 275" stroke="#19E680" stroke-width="3" stroke-linecap="round" stroke-linejoin="round"/>
<path d="M99.6136 265.545H102.034L106.875 273.693H107.08L111.92 265.545H114.341L108.034 275.807V283H105.92V275.807L99.6136 265.545ZM120.268 283.273C119.087 283.273 118.05 282.991 117.158 282.429C116.271 281.866 115.578 281.08 115.078 280.068C114.584 279.057 114.337 277.875 114.337 276.523C114.337 275.159 114.584 273.969 115.078 272.952C115.578 271.935 116.271 271.145 117.158 270.582C118.05 270.02 119.087 269.739 120.268 269.739C121.45 269.739 122.484 270.02 123.371 270.582C124.263 271.145 124.956 271.935 125.45 272.952C125.95 273.969 126.2 275.159 126.2 276.523C126.2 277.875 125.95 279.057 125.45 280.068C124.956 281.08 124.263 281.866 123.371 282.429C122.484 282.991 121.45 283.273 120.268 283.273ZM120.268 281.466C121.166 281.466 121.905 281.236 122.484 280.776C123.064 280.315 123.493 279.71 123.771 278.96C124.05 278.21 124.189 277.398 124.189 276.523C124.189 275.648 124.05 274.832 123.771 274.077C123.493 273.321 123.064 272.71 122.484 272.244C121.905 271.778 121.166 271.545 120.268 271.545C119.371 271.545 118.632 271.778 118.053 272.244C117.473 272.71 117.044 273.321 116.766 274.077C116.487 274.832 116.348 275.648 116.348 276.523C116.348 277.398 116.487 278.21 116.766 278.96C117.044 279.71 117.473 280.315 118.053 280.776C118.632 281.236 119.371 281.466 120.268 281.466ZM137.521 277.648V269.909H139.532V283H137.521V280.784H137.384C137.077 281.449 136.6 282.014 135.952 282.48C135.305 282.94 134.487 283.17 133.498 283.17C132.68 283.17 131.952 282.991 131.316 282.634C130.68 282.27 130.18 281.724 129.816 280.997C129.452 280.264 129.271 279.341 129.271 278.227V269.909H131.282V278.091C131.282 279.045 131.549 279.807 132.083 280.375C132.623 280.943 133.31 281.227 134.146 281.227C134.646 281.227 135.154 281.099 135.671 280.844C136.194 280.588 136.631 280.196 136.984 279.668C137.342 279.139 137.521 278.466 137.521 277.648ZM151.977 275.125V283H149.966V265.545H151.977V271.955H152.148C152.455 271.278 152.915 270.741 153.528 270.344C154.148 269.94 154.972 269.739 156 269.739C156.892 269.739 157.673 269.918 158.344 270.276C159.014 270.628 159.534 271.17 159.903 271.903C160.278 272.631 160.466 273.557 160.466 274.682V283H158.455V274.818C158.455 273.778 158.185 272.974 157.645 272.406C157.111 271.832 156.369 271.545 155.42 271.545C154.761 271.545 154.17 271.685 153.648 271.963C153.131 272.241 152.722 272.648 152.42 273.182C152.125 273.716 151.977 274.364 151.977 275.125ZM167.998 283.307C167.168 283.307 166.415 283.151 165.739 282.838C165.063 282.52 164.526 282.062 164.129 281.466C163.731 280.864 163.532 280.136 163.532 279.284C163.532 278.534 163.68 277.926 163.975 277.46C164.271 276.989 164.665 276.619 165.16 276.352C165.654 276.085 166.2 275.886 166.796 275.756C167.398 275.619 168.004 275.511 168.612 275.432C169.407 275.33 170.052 275.253 170.546 275.202C171.046 275.145 171.41 275.051 171.637 274.92C171.87 274.79 171.987 274.562 171.987 274.239V274.17C171.987 273.33 171.756 272.676 171.296 272.21C170.842 271.744 170.151 271.511 169.225 271.511C168.265 271.511 167.512 271.722 166.967 272.142C166.421 272.562 166.038 273.011 165.816 273.489L163.907 272.807C164.248 272.011 164.702 271.392 165.271 270.949C165.844 270.5 166.469 270.187 167.146 270.011C167.827 269.83 168.498 269.739 169.157 269.739C169.577 269.739 170.06 269.79 170.606 269.892C171.157 269.989 171.688 270.19 172.2 270.497C172.717 270.804 173.146 271.267 173.487 271.886C173.827 272.506 173.998 273.335 173.998 274.375V283H171.987V281.227H171.884C171.748 281.511 171.521 281.815 171.202 282.139C170.884 282.463 170.461 282.739 169.933 282.966C169.404 283.193 168.759 283.307 167.998 283.307ZM168.305 281.5C169.1 281.5 169.771 281.344 170.316 281.031C170.867 280.719 171.282 280.315 171.56 279.821C171.844 279.327 171.987 278.807 171.987 278.261V276.42C171.901 276.523 171.714 276.616 171.424 276.702C171.14 276.781 170.81 276.852 170.435 276.915C170.066 276.972 169.705 277.023 169.353 277.068C169.006 277.108 168.725 277.142 168.509 277.17C167.987 277.239 167.498 277.349 167.043 277.503C166.594 277.651 166.231 277.875 165.952 278.176C165.68 278.472 165.543 278.875 165.543 279.386C165.543 280.085 165.802 280.614 166.319 280.972C166.842 281.324 167.504 281.5 168.305 281.5ZM187.905 269.909L183.064 283H181.018L176.178 269.909H178.359L181.973 280.341H182.109L185.723 269.909H187.905ZM195.58 283.273C194.318 283.273 193.23 282.994 192.315 282.438C191.406 281.875 190.705 281.091 190.21 280.085C189.722 279.074 189.477 277.898 189.477 276.557C189.477 275.216 189.722 274.034 190.21 273.011C190.705 271.983 191.392 271.182 192.273 270.608C193.159 270.028 194.193 269.739 195.375 269.739C196.057 269.739 196.73 269.852 197.395 270.08C198.06 270.307 198.665 270.676 199.21 271.188C199.756 271.693 200.19 272.364 200.514 273.199C200.838 274.034 201 275.062 201 276.284V277.136H190.909V275.398H198.955C198.955 274.659 198.807 274 198.511 273.42C198.222 272.841 197.807 272.384 197.267 272.048C196.733 271.713 196.102 271.545 195.375 271.545C194.574 271.545 193.881 271.744 193.295 272.142C192.716 272.534 192.27 273.045 191.957 273.676C191.645 274.307 191.489 274.983 191.489 275.705V276.864C191.489 277.852 191.659 278.69 192 279.378C192.347 280.06 192.827 280.58 193.44 280.938C194.054 281.29 194.767 281.466 195.58 281.466C196.108 281.466 196.585 281.392 197.011 281.244C197.443 281.091 197.815 280.864 198.128 280.562C198.44 280.256 198.682 279.875 198.852 279.42L200.795 279.966C200.591 280.625 200.247 281.205 199.764 281.705C199.281 282.199 198.685 282.585 197.974 282.864C197.264 283.136 196.466 283.273 195.58 283.273ZM210.776 283V281.466L216.537 275.159C217.213 274.42 217.77 273.778 218.207 273.233C218.645 272.682 218.969 272.165 219.179 271.682C219.395 271.193 219.503 270.682 219.503 270.148C219.503 269.534 219.355 269.003 219.06 268.554C218.77 268.105 218.372 267.759 217.866 267.514C217.361 267.27 216.793 267.148 216.162 267.148C215.491 267.148 214.906 267.287 214.406 267.565C213.912 267.838 213.528 268.222 213.256 268.716C212.989 269.21 212.855 269.79 212.855 270.455H210.844C210.844 269.432 211.08 268.534 211.551 267.761C212.023 266.989 212.665 266.386 213.477 265.955C214.295 265.523 215.213 265.307 216.23 265.307C217.253 265.307 218.159 265.523 218.949 265.955C219.739 266.386 220.358 266.969 220.807 267.702C221.256 268.435 221.48 269.25 221.48 270.148C221.48 270.79 221.364 271.418 221.131 272.031C220.903 272.639 220.506 273.318 219.938 274.068C219.375 274.812 218.594 275.722 217.594 276.795L213.673 280.989V281.125H221.787V283H210.776ZM225.307 283V281.466L231.068 275.159C231.744 274.42 232.301 273.778 232.739 273.233C233.176 272.682 233.5 272.165 233.71 271.682C233.926 271.193 234.034 270.682 234.034 270.148C234.034 269.534 233.886 269.003 233.591 268.554C233.301 268.105 232.903 267.759 232.398 267.514C231.892 267.27 231.324 267.148 230.693 267.148C230.023 267.148 229.438 267.287 228.938 267.565C228.443 267.838 228.06 268.222 227.787 268.716C227.52 269.21 227.386 269.79 227.386 270.455H225.375C225.375 269.432 225.611 268.534 226.082 267.761C226.554 266.989 227.196 266.386 228.009 265.955C228.827 265.523 229.744 265.307 230.761 265.307C231.784 265.307 232.69 265.523 233.48 265.955C234.27 266.386 234.889 266.969 235.338 267.702C235.787 268.435 236.011 269.25 236.011 270.148C236.011 270.79 235.895 271.418 235.662 272.031C235.435 272.639 235.037 273.318 234.469 274.068C233.906 274.812 233.125 275.722 232.125 276.795L228.205 280.989V281.125H236.318V283H225.307ZM246.622 283V269.909H248.565V271.955H248.736C249.009 271.256 249.449 270.713 250.057 270.327C250.665 269.935 251.395 269.739 252.247 269.739C253.111 269.739 253.83 269.935 254.403 270.327C254.983 270.713 255.435 271.256 255.759 271.955H255.895C256.23 271.278 256.733 270.741 257.403 270.344C258.074 269.94 258.878 269.739 259.815 269.739C260.986 269.739 261.943 270.105 262.688 270.838C263.432 271.565 263.804 272.699 263.804 274.239V283H261.793V274.239C261.793 273.273 261.528 272.582 261 272.168C260.472 271.753 259.849 271.545 259.134 271.545C258.213 271.545 257.5 271.824 256.994 272.381C256.489 272.932 256.236 273.631 256.236 274.477V283H254.19V274.034C254.19 273.29 253.949 272.69 253.466 272.236C252.983 271.776 252.361 271.545 251.599 271.545C251.077 271.545 250.588 271.685 250.134 271.963C249.685 272.241 249.321 272.628 249.043 273.122C248.77 273.611 248.634 274.176 248.634 274.818V283H246.622ZM272.8 283.273C271.618 283.273 270.581 282.991 269.689 282.429C268.803 281.866 268.109 281.08 267.609 280.068C267.115 279.057 266.868 277.875 266.868 276.523C266.868 275.159 267.115 273.969 267.609 272.952C268.109 271.935 268.803 271.145 269.689 270.582C270.581 270.02 271.618 269.739 272.8 269.739C273.982 269.739 275.016 270.02 275.902 270.582C276.794 271.145 277.487 271.935 277.982 272.952C278.482 273.969 278.732 275.159 278.732 276.523C278.732 277.875 278.482 279.057 277.982 280.068C277.487 281.08 276.794 281.866 275.902 282.429C275.016 282.991 273.982 283.273 272.8 283.273ZM272.8 281.466C273.697 281.466 274.436 281.236 275.016 280.776C275.595 280.315 276.024 279.71 276.303 278.96C276.581 278.21 276.72 277.398 276.72 276.523C276.72 275.648 276.581 274.832 276.303 274.077C276.024 273.321 275.595 272.71 275.016 272.244C274.436 271.778 273.697 271.545 272.8 271.545C271.902 271.545 271.163 271.778 270.584 272.244C270.004 272.71 269.575 273.321 269.297 274.077C269.018 274.832 268.879 275.648 268.879 276.523C268.879 277.398 269.018 278.21 269.297 278.96C269.575 279.71 270.004 280.315 270.584 280.776C271.163 281.236 271.902 281.466 272.8 281.466ZM283.813 275.125V283H281.802V269.909H283.745V271.955H283.915C284.222 271.29 284.688 270.756 285.313 270.352C285.938 269.943 286.745 269.739 287.734 269.739C288.62 269.739 289.396 269.92 290.06 270.284C290.725 270.642 291.242 271.188 291.612 271.92C291.981 272.648 292.165 273.568 292.165 274.682V283H290.154V274.818C290.154 273.79 289.887 272.989 289.353 272.415C288.819 271.835 288.086 271.545 287.154 271.545C286.512 271.545 285.938 271.685 285.433 271.963C284.933 272.241 284.538 272.648 284.248 273.182C283.958 273.716 283.813 274.364 283.813 275.125ZM301.534 269.909V271.614H294.75V269.909H301.534ZM296.727 266.773H298.739V279.25C298.739 279.818 298.821 280.244 298.986 280.528C299.156 280.807 299.372 280.994 299.634 281.091C299.901 281.182 300.182 281.227 300.477 281.227C300.699 281.227 300.881 281.216 301.023 281.193C301.165 281.165 301.278 281.142 301.364 281.125L301.773 282.932C301.636 282.983 301.446 283.034 301.202 283.085C300.957 283.142 300.648 283.17 300.273 283.17C299.705 283.17 299.148 283.048 298.602 282.804C298.063 282.56 297.614 282.188 297.256 281.688C296.903 281.188 296.727 280.557 296.727 279.795V266.773ZM306.852 275.125V283H304.841V265.545H306.852V271.955H307.023C307.33 271.278 307.79 270.741 308.403 270.344C309.023 269.94 309.847 269.739 310.875 269.739C311.767 269.739 312.548 269.918 313.219 270.276C313.889 270.628 314.409 271.17 314.778 271.903C315.153 272.631 315.341 273.557 315.341 274.682V283H313.33V274.818C313.33 273.778 313.06 272.974 312.52 272.406C311.986 271.832 311.244 271.545 310.295 271.545C309.636 271.545 309.045 271.685 308.523 271.963C308.006 272.241 307.597 272.648 307.295 273.182C307 273.716 306.852 274.364 306.852 275.125ZM328.293 272.841L326.487 273.352C326.373 273.051 326.205 272.759 325.984 272.474C325.768 272.185 325.472 271.946 325.097 271.759C324.722 271.571 324.242 271.477 323.657 271.477C322.856 271.477 322.188 271.662 321.654 272.031C321.126 272.395 320.862 272.858 320.862 273.42C320.862 273.92 321.043 274.315 321.407 274.605C321.771 274.895 322.339 275.136 323.112 275.33L325.055 275.807C326.225 276.091 327.097 276.526 327.671 277.111C328.245 277.69 328.532 278.437 328.532 279.352C328.532 280.102 328.316 280.773 327.884 281.364C327.458 281.955 326.862 282.42 326.094 282.761C325.327 283.102 324.435 283.273 323.418 283.273C322.083 283.273 320.978 282.983 320.103 282.403C319.228 281.824 318.674 280.977 318.441 279.864L320.35 279.386C320.532 280.091 320.876 280.619 321.381 280.972C321.893 281.324 322.56 281.5 323.384 281.5C324.322 281.5 325.066 281.301 325.617 280.903C326.174 280.5 326.452 280.017 326.452 279.455C326.452 279 326.293 278.619 325.975 278.312C325.657 278 325.168 277.767 324.509 277.614L322.327 277.102C321.129 276.818 320.248 276.378 319.685 275.781C319.129 275.179 318.85 274.426 318.85 273.523C318.85 272.784 319.058 272.131 319.472 271.562C319.893 270.994 320.464 270.548 321.185 270.224C321.913 269.901 322.737 269.739 323.657 269.739C324.952 269.739 325.969 270.023 326.708 270.591C327.452 271.159 327.981 271.909 328.293 272.841ZM343.628 283.273C342.446 283.273 341.409 282.991 340.517 282.429C339.631 281.866 338.938 281.08 338.438 280.068C337.943 279.057 337.696 277.875 337.696 276.523C337.696 275.159 337.943 273.969 338.438 272.952C338.938 271.935 339.631 271.145 340.517 270.582C341.409 270.02 342.446 269.739 343.628 269.739C344.81 269.739 345.844 270.02 346.73 270.582C347.622 271.145 348.315 271.935 348.81 272.952C349.31 273.969 349.56 275.159 349.56 276.523C349.56 277.875 349.31 279.057 348.81 280.068C348.315 281.08 347.622 281.866 346.73 282.429C345.844 282.991 344.81 283.273 343.628 283.273ZM343.628 281.466C344.526 281.466 345.264 281.236 345.844 280.776C346.423 280.315 346.852 279.71 347.131 278.96C347.409 278.21 347.548 277.398 347.548 276.523C347.548 275.648 347.409 274.832 347.131 274.077C346.852 273.321 346.423 272.71 345.844 272.244C345.264 271.778 344.526 271.545 343.628 271.545C342.73 271.545 341.991 271.778 341.412 272.244C340.832 272.71 340.403 273.321 340.125 274.077C339.847 274.832 339.707 275.648 339.707 276.523C339.707 277.398 339.847 278.21 340.125 278.96C340.403 279.71 340.832 280.315 341.412 280.776C341.991 281.236 342.73 281.466 343.628 281.466ZM358.46 269.909V271.614H351.403V269.909H358.46ZM353.516 283V268.102C353.516 267.352 353.692 266.727 354.045 266.227C354.397 265.727 354.854 265.352 355.417 265.102C355.979 264.852 356.573 264.727 357.198 264.727C357.692 264.727 358.096 264.767 358.408 264.847C358.721 264.926 358.954 265 359.107 265.068L358.528 266.807C358.425 266.773 358.283 266.73 358.102 266.679C357.925 266.628 357.692 266.602 357.403 266.602C356.738 266.602 356.258 266.77 355.962 267.105C355.673 267.44 355.528 267.932 355.528 268.58V283H353.516ZM368.028 283V269.909H369.972V271.886H370.108C370.347 271.239 370.778 270.713 371.403 270.31C372.028 269.906 372.733 269.705 373.517 269.705C373.665 269.705 373.849 269.707 374.071 269.713C374.293 269.719 374.46 269.727 374.574 269.739V271.784C374.506 271.767 374.349 271.741 374.105 271.707C373.866 271.668 373.614 271.648 373.347 271.648C372.71 271.648 372.142 271.781 371.642 272.048C371.148 272.31 370.756 272.673 370.466 273.139C370.182 273.599 370.04 274.125 370.04 274.716V283H368.028ZM385.208 277.648V269.909H387.219V283H385.208V280.784H385.072C384.765 281.449 384.288 282.014 383.64 282.48C382.992 282.94 382.174 283.17 381.185 283.17C380.367 283.17 379.64 282.991 379.004 282.634C378.367 282.27 377.867 281.724 377.504 280.997C377.14 280.264 376.958 279.341 376.958 278.227V269.909H378.969V278.091C378.969 279.045 379.237 279.807 379.771 280.375C380.31 280.943 380.998 281.227 381.833 281.227C382.333 281.227 382.842 281.099 383.359 280.844C383.881 280.588 384.319 280.196 384.671 279.668C385.029 279.139 385.208 278.466 385.208 277.648ZM392.915 275.125V283H390.903V269.909H392.847V271.955H393.017C393.324 271.29 393.79 270.756 394.415 270.352C395.04 269.943 395.847 269.739 396.835 269.739C397.722 269.739 398.497 269.92 399.162 270.284C399.827 270.642 400.344 271.188 400.713 271.92C401.082 272.648 401.267 273.568 401.267 274.682V283H399.256V274.818C399.256 273.79 398.989 272.989 398.455 272.415C397.92 271.835 397.188 271.545 396.256 271.545C395.614 271.545 395.04 271.685 394.534 271.963C394.034 272.241 393.639 272.648 393.349 273.182C393.06 273.716 392.915 274.364 392.915 275.125ZM407.908 283L403.92 269.909H406.033L408.863 279.932H408.999L411.795 269.909H413.942L416.704 279.898H416.84L419.67 269.909H421.783L417.795 283H415.817L412.954 272.943H412.749L409.886 283H407.908ZM428.295 283.307C427.465 283.307 426.712 283.151 426.036 282.838C425.36 282.52 424.823 282.062 424.425 281.466C424.028 280.864 423.829 280.136 423.829 279.284C423.829 278.534 423.977 277.926 424.272 277.46C424.567 276.989 424.962 276.619 425.457 276.352C425.951 276.085 426.496 275.886 427.093 275.756C427.695 275.619 428.3 275.511 428.908 275.432C429.704 275.33 430.349 275.253 430.843 275.202C431.343 275.145 431.707 275.051 431.934 274.92C432.167 274.79 432.283 274.562 432.283 274.239V274.17C432.283 273.33 432.053 272.676 431.593 272.21C431.138 271.744 430.448 271.511 429.522 271.511C428.562 271.511 427.809 271.722 427.263 272.142C426.718 272.562 426.335 273.011 426.113 273.489L424.204 272.807C424.545 272.011 424.999 271.392 425.567 270.949C426.141 270.5 426.766 270.187 427.442 270.011C428.124 269.83 428.795 269.739 429.454 269.739C429.874 269.739 430.357 269.79 430.903 269.892C431.454 269.989 431.985 270.19 432.496 270.497C433.013 270.804 433.442 271.267 433.783 271.886C434.124 272.506 434.295 273.335 434.295 274.375V283H432.283V281.227H432.181C432.045 281.511 431.817 281.815 431.499 282.139C431.181 282.463 430.758 282.739 430.229 282.966C429.701 283.193 429.056 283.307 428.295 283.307ZM428.602 281.5C429.397 281.5 430.067 281.344 430.613 281.031C431.164 280.719 431.579 280.315 431.857 279.821C432.141 279.327 432.283 278.807 432.283 278.261V276.42C432.198 276.523 432.011 276.616 431.721 276.702C431.437 276.781 431.107 276.852 430.732 276.915C430.363 276.972 430.002 277.023 429.65 277.068C429.303 277.108 429.022 277.142 428.806 277.17C428.283 277.239 427.795 277.349 427.34 277.503C426.891 277.651 426.528 277.875 426.249 278.176C425.977 278.472 425.84 278.875 425.84 279.386C425.84 280.085 426.099 280.614 426.616 280.972C427.138 281.324 427.8 281.5 428.602 281.5ZM438.793 287.909C438.452 287.909 438.148 287.881 437.881 287.824C437.614 287.773 437.429 287.722 437.327 287.67L437.838 285.898C438.327 286.023 438.759 286.068 439.134 286.034C439.509 286 439.841 285.832 440.131 285.531C440.426 285.236 440.696 284.756 440.94 284.091L441.315 283.068L436.474 269.909H438.656L442.27 280.341H442.406L446.02 269.909H448.202L442.645 284.909C442.395 285.585 442.085 286.145 441.716 286.588C441.347 287.037 440.918 287.369 440.429 287.585C439.946 287.801 439.401 287.909 438.793 287.909ZM457.607 283V269.909H459.55V271.955H459.72C459.993 271.256 460.433 270.713 461.041 270.327C461.649 269.935 462.379 269.739 463.232 269.739C464.095 269.739 464.814 269.935 465.388 270.327C465.967 270.713 466.419 271.256 466.743 271.955H466.879C467.214 271.278 467.717 270.741 468.388 270.344C469.058 269.94 469.862 269.739 470.8 269.739C471.97 269.739 472.928 270.105 473.672 270.838C474.416 271.565 474.788 272.699 474.788 274.239V283H472.777V274.239C472.777 273.273 472.513 272.582 471.984 272.168C471.456 271.753 470.834 271.545 470.118 271.545C469.197 271.545 468.484 271.824 467.979 272.381C467.473 272.932 467.22 273.631 467.22 274.477V283H465.175V274.034C465.175 273.29 464.933 272.69 464.45 272.236C463.967 271.776 463.345 271.545 462.584 271.545C462.061 271.545 461.572 271.685 461.118 271.963C460.669 272.241 460.305 272.628 460.027 273.122C459.754 273.611 459.618 274.176 459.618 274.818V283H457.607ZM483.784 283.273C482.602 283.273 481.565 282.991 480.673 282.429C479.787 281.866 479.094 281.08 478.594 280.068C478.099 279.057 477.852 277.875 477.852 276.523C477.852 275.159 478.099 273.969 478.594 272.952C479.094 271.935 479.787 271.145 480.673 270.582C481.565 270.02 482.602 269.739 483.784 269.739C484.966 269.739 486 270.02 486.886 270.582C487.778 271.145 488.472 271.935 488.966 272.952C489.466 273.969 489.716 275.159 489.716 276.523C489.716 277.875 489.466 279.057 488.966 280.068C488.472 281.08 487.778 281.866 486.886 282.429C486 282.991 484.966 283.273 483.784 283.273ZM483.784 281.466C484.682 281.466 485.42 281.236 486 280.776C486.58 280.315 487.009 279.71 487.287 278.96C487.565 278.21 487.705 277.398 487.705 276.523C487.705 275.648 487.565 274.832 487.287 274.077C487.009 273.321 486.58 272.71 486 272.244C485.42 271.778 484.682 271.545 483.784 271.545C482.886 271.545 482.148 271.778 481.568 272.244C480.989 272.71 480.56 273.321 480.281 274.077C480.003 274.832 479.864 275.648 479.864 276.523C479.864 277.398 480.003 278.21 480.281 278.96C480.56 279.71 480.989 280.315 481.568 280.776C482.148 281.236 482.886 281.466 483.784 281.466ZM503.022 269.909L498.181 283H496.136L491.295 269.909H493.477L497.09 280.341H497.227L500.84 269.909H503.022ZM505.677 283V269.909H507.688V283H505.677ZM506.7 267.727C506.308 267.727 505.969 267.594 505.685 267.327C505.407 267.06 505.268 266.739 505.268 266.364C505.268 265.989 505.407 265.668 505.685 265.401C505.969 265.134 506.308 265 506.7 265C507.092 265 507.427 265.134 507.705 265.401C507.989 265.668 508.131 265.989 508.131 266.364C508.131 266.739 507.989 267.06 507.705 267.327C507.427 267.594 507.092 267.727 506.7 267.727ZM513.384 275.125V283H511.372V269.909H513.315V271.955H513.486C513.793 271.29 514.259 270.756 514.884 270.352C515.509 269.943 516.315 269.739 517.304 269.739C518.19 269.739 518.966 269.92 519.631 270.284C520.295 270.642 520.813 271.188 521.182 271.92C521.551 272.648 521.736 273.568 521.736 274.682V283H519.724V274.818C519.724 273.79 519.457 272.989 518.923 272.415C518.389 271.835 517.656 271.545 516.724 271.545C516.082 271.545 515.509 271.685 515.003 271.963C514.503 272.241 514.108 272.648 513.818 273.182C513.528 273.716 513.384 274.364 513.384 275.125ZM530.695 288.182C529.724 288.182 528.888 288.057 528.19 287.807C527.491 287.562 526.908 287.239 526.442 286.835C525.982 286.438 525.616 286.011 525.343 285.557L526.945 284.432C527.127 284.67 527.357 284.943 527.636 285.25C527.914 285.562 528.295 285.832 528.778 286.06C529.266 286.293 529.906 286.409 530.695 286.409C531.752 286.409 532.624 286.153 533.312 285.642C533.999 285.131 534.343 284.33 534.343 283.239V280.58H534.173C534.025 280.818 533.815 281.114 533.542 281.466C533.275 281.812 532.888 282.122 532.383 282.395C531.883 282.662 531.207 282.795 530.354 282.795C529.298 282.795 528.349 282.545 527.508 282.045C526.673 281.545 526.011 280.818 525.522 279.864C525.039 278.909 524.798 277.75 524.798 276.386C524.798 275.045 525.033 273.878 525.505 272.884C525.977 271.884 526.633 271.111 527.474 270.565C528.315 270.014 529.286 269.739 530.388 269.739C531.241 269.739 531.917 269.881 532.417 270.165C532.923 270.443 533.309 270.761 533.576 271.119C533.849 271.472 534.059 271.761 534.207 271.989H534.411V269.909H536.354V283.375C536.354 284.5 536.099 285.415 535.587 286.119C535.082 286.83 534.4 287.349 533.542 287.679C532.69 288.014 531.741 288.182 530.695 288.182ZM530.627 280.989C531.434 280.989 532.116 280.804 532.673 280.435C533.229 280.065 533.653 279.534 533.942 278.841C534.232 278.148 534.377 277.318 534.377 276.352C534.377 275.409 534.235 274.577 533.951 273.855C533.667 273.134 533.246 272.568 532.69 272.159C532.133 271.75 531.445 271.545 530.627 271.545C529.775 271.545 529.065 271.761 528.496 272.193C527.934 272.625 527.511 273.205 527.227 273.932C526.948 274.659 526.809 275.466 526.809 276.352C526.809 277.261 526.951 278.065 527.235 278.764C527.525 279.457 527.951 280.003 528.513 280.401C529.082 280.793 529.786 280.989 530.627 280.989ZM555.036 277.648V269.909H557.048V283H555.036V280.784H554.9C554.593 281.449 554.116 282.014 553.468 282.48C552.82 282.94 552.002 283.17 551.013 283.17C550.195 283.17 549.468 282.991 548.832 282.634C548.195 282.27 547.695 281.724 547.332 280.997C546.968 280.264 546.786 279.341 546.786 278.227V269.909H548.798V278.091C548.798 279.045 549.065 279.807 549.599 280.375C550.138 280.943 550.826 281.227 551.661 281.227C552.161 281.227 552.67 281.099 553.187 280.844C553.71 280.588 554.147 280.196 554.499 279.668C554.857 279.139 555.036 278.466 555.036 277.648ZM560.732 287.909V269.909H562.675V271.989H562.913C563.061 271.761 563.266 271.472 563.527 271.119C563.794 270.761 564.175 270.443 564.669 270.165C565.169 269.881 565.845 269.739 566.697 269.739C567.8 269.739 568.771 270.014 569.612 270.565C570.453 271.116 571.109 271.898 571.581 272.909C572.053 273.92 572.288 275.114 572.288 276.489C572.288 277.875 572.053 279.077 571.581 280.094C571.109 281.105 570.456 281.889 569.621 282.446C568.786 282.997 567.822 283.273 566.732 283.273C565.891 283.273 565.217 283.134 564.712 282.855C564.206 282.571 563.817 282.25 563.544 281.892C563.271 281.528 563.061 281.227 562.913 280.989H562.743V287.909H560.732ZM562.709 276.455C562.709 277.443 562.854 278.315 563.143 279.071C563.433 279.821 563.857 280.409 564.413 280.835C564.97 281.256 565.652 281.466 566.459 281.466C567.3 281.466 568.001 281.244 568.564 280.801C569.132 280.352 569.558 279.75 569.842 278.994C570.132 278.233 570.277 277.386 570.277 276.455C570.277 275.534 570.135 274.705 569.851 273.966C569.572 273.222 569.149 272.634 568.581 272.202C568.018 271.764 567.311 271.545 566.459 271.545C565.641 271.545 564.953 271.753 564.396 272.168C563.839 272.577 563.419 273.151 563.135 273.889C562.851 274.622 562.709 275.477 562.709 276.455ZM576.822 283.136C576.402 283.136 576.041 282.986 575.74 282.685C575.439 282.384 575.288 282.023 575.288 281.602C575.288 281.182 575.439 280.821 575.74 280.52C576.041 280.219 576.402 280.068 576.822 280.068C577.243 280.068 577.604 280.219 577.905 280.52C578.206 280.821 578.357 281.182 578.357 281.602C578.357 281.881 578.286 282.136 578.143 282.369C578.007 282.602 577.822 282.79 577.589 282.932C577.362 283.068 577.107 283.136 576.822 283.136Z" fill="#E4E4E4" fill-opacity="0.9"/>
</g>
<rect x="0.5" y="0.5" width="668" height="459" rx="38.5" stroke="url(#paint0_linear_909_81)"/>
<defs>
<filter id="filter0_f_909_81" x="-277" y="-317" width="786" height="786" filterUnits="userSpaceOnUse" color-interpolation-filters="sRGB">
<feFlood flood-opacity="0" result="BackgroundImageFix"/>
<feBlend mode="normal" in="SourceGraphic" in2="BackgroundImageFix" result="shape"/>
<feGaussianBlur stdDeviation="125" result="effect1_foregroundBlur_909_81"/>
</filter>
<linearGradient id="paint0_linear_909_81" x1="388" y1="390.5" x2="-83.5" y2="-76.5" gradientUnits="userSpaceOnUse">
<stop stop-opacity="0"/>
<stop offset="1" stop-color="white"/>
</linearGradient>
<clipPath id="clip0_909_81">
<rect width="669" height="460" rx="39" fill="white"/>
</clipPath>
</defs>
</svg>
