<svg width="669" height="637" viewBox="0 0 669 637" fill="none" xmlns="http://www.w3.org/2000/svg">
<rect x="0.5" y="0.5" width="668" height="636" rx="38.5" stroke="url(#paint0_linear_907_60)"/>
<g filter="url(#filter0_i_907_60)">
<rect x="43" y="45" width="586" height="90" rx="20" fill="#0F0F0F"/>
<circle cx="108" cy="90" r="25" fill="url(#paint1_radial_907_60)"/>
</g>
<rect x="43" y="171" width="286" height="182" rx="22" fill="url(#paint2_linear_907_60)"/>
<path d="M63.2784 191.364H65.4091L69.1136 200.409H69.25L72.9545 191.364H75.0852V203H73.4148V194.58H73.3068L69.875 202.983H68.4886L65.0568 194.574H64.9489V203H63.2784V191.364ZM77.6378 203V191.364H81.7855C82.687 191.364 83.4351 191.519 84.0298 191.83C84.6283 192.14 85.0753 192.57 85.3707 193.119C85.6662 193.665 85.8139 194.295 85.8139 195.011C85.8139 195.723 85.6643 196.35 85.3651 196.892C85.0696 197.43 84.6226 197.848 84.0241 198.148C83.4295 198.447 82.6813 198.597 81.7798 198.597H78.6378V197.085H81.6207C82.1889 197.085 82.651 197.004 83.0071 196.841C83.367 196.678 83.6302 196.441 83.7969 196.131C83.9635 195.82 84.0469 195.447 84.0469 195.011C84.0469 194.572 83.9616 194.191 83.7912 193.869C83.6245 193.547 83.3613 193.301 83.0014 193.131C82.6454 192.956 82.1776 192.869 81.598 192.869H79.3935V203H77.6378ZM83.3821 197.75L86.2571 203H84.2571L81.4389 197.75H83.3821ZM87.9503 203V191.364H92.098C92.9995 191.364 93.7476 191.519 94.3423 191.83C94.9408 192.14 95.3878 192.57 95.6832 193.119C95.9787 193.665 96.1264 194.295 96.1264 195.011C96.1264 195.723 95.9768 196.35 95.6776 196.892C95.3821 197.43 94.9351 197.848 94.3366 198.148C93.742 198.447 92.9938 198.597 92.0923 198.597H88.9503V197.085H91.9332C92.5014 197.085 92.9635 197.004 93.3196 196.841C93.6795 196.678 93.9427 196.441 94.1094 196.131C94.276 195.82 94.3594 195.447 94.3594 195.011C94.3594 194.572 94.2741 194.191 94.1037 193.869C93.937 193.547 93.6738 193.301 93.3139 193.131C92.9579 192.956 92.4901 192.869 91.9105 192.869H89.706V203H87.9503ZM93.6946 197.75L96.5696 203H94.5696L91.7514 197.75H93.6946ZM110.372 195.04C110.262 194.695 110.115 194.386 109.929 194.114C109.747 193.837 109.529 193.602 109.276 193.409C109.022 193.212 108.732 193.062 108.406 192.96C108.084 192.858 107.73 192.807 107.344 192.807C106.688 192.807 106.098 192.975 105.571 193.312C105.045 193.65 104.628 194.144 104.321 194.795C104.018 195.443 103.866 196.237 103.866 197.176C103.866 198.119 104.02 198.917 104.327 199.568C104.634 200.22 105.054 200.714 105.588 201.051C106.122 201.388 106.73 201.557 107.412 201.557C108.045 201.557 108.596 201.428 109.065 201.17C109.539 200.913 109.904 200.549 110.162 200.08C110.423 199.606 110.554 199.049 110.554 198.409L111.009 198.494H107.679V197.045H112.253V198.369C112.253 199.347 112.045 200.195 111.628 200.915C111.215 201.631 110.643 202.184 109.912 202.574C109.185 202.964 108.351 203.159 107.412 203.159C106.359 203.159 105.435 202.917 104.639 202.432C103.848 201.947 103.23 201.259 102.787 200.369C102.344 199.475 102.122 198.415 102.122 197.188C102.122 196.259 102.251 195.426 102.509 194.688C102.766 193.949 103.128 193.322 103.594 192.807C104.063 192.288 104.615 191.892 105.247 191.619C105.884 191.343 106.579 191.205 107.332 191.205C107.961 191.205 108.546 191.297 109.088 191.483C109.634 191.669 110.118 191.932 110.543 192.273C110.971 192.614 111.325 193.019 111.605 193.489C111.885 193.955 112.075 194.472 112.173 195.04H110.372ZM114.345 203V194.273H115.987V195.659H116.078C116.237 195.189 116.518 194.82 116.919 194.551C117.324 194.278 117.783 194.142 118.294 194.142C118.4 194.142 118.525 194.146 118.669 194.153C118.817 194.161 118.932 194.17 119.016 194.182V195.807C118.947 195.788 118.826 195.767 118.652 195.744C118.478 195.718 118.304 195.705 118.129 195.705C117.728 195.705 117.37 195.79 117.055 195.96C116.745 196.127 116.499 196.36 116.317 196.659C116.135 196.955 116.044 197.292 116.044 197.67V203H114.345ZM123.849 203.176C123.031 203.176 122.317 202.989 121.707 202.614C121.098 202.239 120.624 201.714 120.287 201.04C119.95 200.366 119.781 199.578 119.781 198.676C119.781 197.771 119.95 196.979 120.287 196.301C120.624 195.623 121.098 195.097 121.707 194.722C122.317 194.347 123.031 194.159 123.849 194.159C124.668 194.159 125.382 194.347 125.991 194.722C126.601 195.097 127.075 195.623 127.412 196.301C127.749 196.979 127.918 197.771 127.918 198.676C127.918 199.578 127.749 200.366 127.412 201.04C127.075 201.714 126.601 202.239 125.991 202.614C125.382 202.989 124.668 203.176 123.849 203.176ZM123.855 201.75C124.385 201.75 124.825 201.61 125.173 201.33C125.522 201.049 125.779 200.676 125.946 200.21C126.116 199.744 126.202 199.231 126.202 198.67C126.202 198.114 126.116 197.602 125.946 197.136C125.779 196.667 125.522 196.29 125.173 196.006C124.825 195.722 124.385 195.58 123.855 195.58C123.321 195.58 122.878 195.722 122.526 196.006C122.177 196.29 121.918 196.667 121.747 197.136C121.58 197.602 121.497 198.114 121.497 198.67C121.497 199.231 121.58 199.744 121.747 200.21C121.918 200.676 122.177 201.049 122.526 201.33C122.878 201.61 123.321 201.75 123.855 201.75ZM131.44 203L128.872 194.273H130.628L132.338 200.682H132.423L134.139 194.273H135.895L137.599 200.653H137.685L139.384 194.273H141.139L138.577 203H136.844L135.071 196.699H134.94L133.168 203H131.44ZM146.825 194.273V195.636H142.058V194.273H146.825ZM143.337 192.182H145.036V200.438C145.036 200.767 145.085 201.015 145.183 201.182C145.282 201.345 145.409 201.456 145.564 201.517C145.723 201.574 145.895 201.602 146.081 201.602C146.217 201.602 146.337 201.593 146.439 201.574C146.541 201.555 146.621 201.54 146.678 201.528L146.984 202.932C146.886 202.97 146.746 203.008 146.564 203.045C146.382 203.087 146.155 203.11 145.882 203.114C145.435 203.121 145.018 203.042 144.632 202.875C144.246 202.708 143.933 202.451 143.695 202.102C143.456 201.754 143.337 201.316 143.337 200.79V192.182ZM150.591 197.818V203H148.892V191.364H150.568V195.693H150.676C150.881 195.223 151.193 194.85 151.614 194.574C152.034 194.297 152.583 194.159 153.261 194.159C153.86 194.159 154.383 194.282 154.83 194.528C155.28 194.775 155.629 195.142 155.875 195.631C156.125 196.116 156.25 196.722 156.25 197.449V203H154.551V197.653C154.551 197.013 154.386 196.517 154.057 196.165C153.727 195.809 153.269 195.631 152.682 195.631C152.28 195.631 151.92 195.716 151.602 195.886C151.288 196.057 151.04 196.307 150.858 196.636C150.68 196.962 150.591 197.356 150.591 197.818Z" fill="#E4E4E4" fill-opacity="0.8"/>
<path d="M83.1818 238.455V285H77.5455V244.364H77.2727L65.9091 251.909V246.182L77.5455 238.455H83.1818ZM111.114 285.636C108.447 285.636 106.045 285.106 103.909 284.045C101.773 282.985 100.061 281.53 98.7727 279.682C97.4848 277.833 96.7803 275.727 96.6591 273.364H102.114C102.326 275.47 103.28 277.212 104.977 278.591C106.689 279.955 108.735 280.636 111.114 280.636C113.023 280.636 114.72 280.189 116.205 279.295C117.705 278.402 118.879 277.174 119.727 275.614C120.591 274.038 121.023 272.258 121.023 270.273C121.023 268.242 120.576 266.432 119.682 264.841C118.803 263.235 117.591 261.97 116.045 261.045C114.5 260.121 112.735 259.652 110.75 259.636C109.326 259.621 107.864 259.841 106.364 260.295C104.864 260.735 103.629 261.303 102.659 262L97.3864 261.364L100.205 238.455H124.386V243.455H104.932L103.295 257.182H103.568C104.523 256.424 105.72 255.795 107.159 255.295C108.598 254.795 110.098 254.545 111.659 254.545C114.508 254.545 117.045 255.227 119.273 256.591C121.515 257.939 123.273 259.788 124.545 262.136C125.833 264.485 126.477 267.167 126.477 270.182C126.477 273.152 125.811 275.803 124.477 278.136C123.159 280.455 121.341 282.288 119.023 283.636C116.705 284.97 114.068 285.636 111.114 285.636ZM159.233 276.273V273.818C159.233 272.121 159.581 270.568 160.278 269.159C160.991 267.735 162.021 266.598 163.369 265.75C164.733 264.886 166.384 264.455 168.324 264.455C170.294 264.455 171.945 264.886 173.278 265.75C174.612 266.598 175.619 267.735 176.301 269.159C176.983 270.568 177.324 272.121 177.324 273.818V276.273C177.324 277.97 176.975 279.53 176.278 280.955C175.597 282.364 174.581 283.5 173.233 284.364C171.9 285.212 170.263 285.636 168.324 285.636C166.354 285.636 164.695 285.212 163.347 284.364C161.998 283.5 160.975 282.364 160.278 280.955C159.581 279.53 159.233 277.97 159.233 276.273ZM163.869 273.818V276.273C163.869 277.682 164.203 278.947 164.869 280.068C165.536 281.174 166.688 281.727 168.324 281.727C169.915 281.727 171.036 281.174 171.688 280.068C172.354 278.947 172.688 277.682 172.688 276.273V273.818C172.688 272.409 172.369 271.152 171.733 270.045C171.097 268.924 169.96 268.364 168.324 268.364C166.733 268.364 165.589 268.924 164.892 270.045C164.21 271.152 163.869 272.409 163.869 273.818ZM136.051 249.636V247.182C136.051 245.485 136.4 243.932 137.097 242.523C137.809 241.098 138.839 239.962 140.188 239.114C141.551 238.25 143.203 237.818 145.142 237.818C147.112 237.818 148.763 238.25 150.097 239.114C151.43 239.962 152.438 241.098 153.119 242.523C153.801 243.932 154.142 245.485 154.142 247.182V249.636C154.142 251.333 153.794 252.894 153.097 254.318C152.415 255.727 151.4 256.864 150.051 257.727C148.718 258.576 147.081 259 145.142 259C143.172 259 141.513 258.576 140.165 257.727C138.816 256.864 137.794 255.727 137.097 254.318C136.4 252.894 136.051 251.333 136.051 249.636ZM140.688 247.182V249.636C140.688 251.045 141.021 252.311 141.688 253.432C142.354 254.538 143.506 255.091 145.142 255.091C146.733 255.091 147.854 254.538 148.506 253.432C149.172 252.311 149.506 251.045 149.506 249.636V247.182C149.506 245.773 149.188 244.515 148.551 243.409C147.915 242.288 146.778 241.727 145.142 241.727C143.551 241.727 142.407 242.288 141.71 243.409C141.028 244.515 140.688 245.773 140.688 247.182ZM137.778 285L169.778 238.455H174.96L142.96 285H137.778Z" fill="#4ADE75"/>
<rect x="343" y="171" width="286" height="182" rx="22" fill="url(#paint3_linear_907_60)"/>
<path d="M374.67 191.364V203H373.057L367.142 194.466H367.034V203H365.278V191.364H366.903L372.824 199.909H372.932V191.364H374.67ZM380.857 203.176C379.997 203.176 379.256 202.992 378.635 202.625C378.018 202.254 377.54 201.733 377.203 201.062C376.87 200.388 376.703 199.598 376.703 198.693C376.703 197.799 376.87 197.011 377.203 196.33C377.54 195.648 378.01 195.116 378.612 194.733C379.218 194.35 379.927 194.159 380.737 194.159C381.23 194.159 381.707 194.241 382.169 194.403C382.631 194.566 383.046 194.822 383.413 195.17C383.781 195.519 384.071 195.972 384.283 196.528C384.495 197.081 384.601 197.754 384.601 198.545V199.148H377.663V197.875H382.936C382.936 197.428 382.845 197.032 382.663 196.688C382.482 196.339 382.226 196.064 381.896 195.864C381.571 195.663 381.188 195.562 380.749 195.562C380.271 195.562 379.855 195.68 379.499 195.915C379.146 196.146 378.874 196.449 378.68 196.824C378.491 197.195 378.396 197.598 378.396 198.034V199.028C378.396 199.612 378.499 200.108 378.703 200.517C378.911 200.926 379.201 201.239 379.572 201.455C379.944 201.667 380.377 201.773 380.874 201.773C381.196 201.773 381.489 201.727 381.754 201.636C382.019 201.542 382.249 201.402 382.442 201.216C382.635 201.03 382.783 200.801 382.885 200.528L384.493 200.818C384.364 201.292 384.133 201.706 383.8 202.062C383.47 202.415 383.055 202.689 382.555 202.886C382.059 203.08 381.493 203.176 380.857 203.176ZM388.362 203L385.794 194.273H387.55L389.26 200.682H389.345L391.061 194.273H392.817L394.521 200.653H394.607L396.305 194.273H398.061L395.499 203H393.766L391.993 196.699H391.862L390.089 203H388.362ZM413.709 195.148H411.936C411.868 194.769 411.741 194.436 411.555 194.148C411.37 193.86 411.143 193.616 410.874 193.415C410.605 193.214 410.304 193.062 409.97 192.96C409.641 192.858 409.29 192.807 408.919 192.807C408.249 192.807 407.648 192.975 407.118 193.312C406.591 193.65 406.175 194.144 405.868 194.795C405.565 195.447 405.413 196.242 405.413 197.182C405.413 198.129 405.565 198.928 405.868 199.58C406.175 200.231 406.593 200.723 407.124 201.057C407.654 201.39 408.25 201.557 408.913 201.557C409.281 201.557 409.629 201.508 409.959 201.409C410.292 201.307 410.593 201.157 410.862 200.96C411.131 200.763 411.358 200.523 411.544 200.239C411.733 199.951 411.864 199.621 411.936 199.25L413.709 199.256C413.614 199.828 413.43 200.354 413.158 200.835C412.889 201.312 412.542 201.725 412.118 202.074C411.697 202.419 411.216 202.686 410.675 202.875C410.133 203.064 409.542 203.159 408.902 203.159C407.894 203.159 406.997 202.92 406.209 202.443C405.421 201.962 404.8 201.275 404.345 200.381C403.894 199.487 403.669 198.42 403.669 197.182C403.669 195.939 403.896 194.873 404.351 193.983C404.805 193.089 405.427 192.403 406.214 191.926C407.002 191.445 407.898 191.205 408.902 191.205C409.519 191.205 410.095 191.294 410.629 191.472C411.167 191.646 411.65 191.903 412.078 192.244C412.506 192.581 412.86 192.994 413.141 193.483C413.421 193.968 413.61 194.523 413.709 195.148ZM421.202 199.381V194.273H422.906V203H421.236V201.489H421.145C420.944 201.955 420.622 202.343 420.179 202.653C419.74 202.96 419.192 203.114 418.537 203.114C417.976 203.114 417.48 202.991 417.048 202.744C416.62 202.494 416.283 202.125 416.037 201.636C415.795 201.148 415.673 200.544 415.673 199.824V194.273H417.372V199.619C417.372 200.214 417.537 200.687 417.866 201.04C418.196 201.392 418.624 201.568 419.151 201.568C419.469 201.568 419.785 201.489 420.099 201.33C420.418 201.17 420.681 200.93 420.889 200.608C421.101 200.286 421.205 199.877 421.202 199.381ZM431.729 196.403L430.189 196.676C430.125 196.479 430.022 196.292 429.882 196.114C429.746 195.936 429.56 195.79 429.325 195.676C429.09 195.562 428.797 195.506 428.445 195.506C427.964 195.506 427.562 195.614 427.24 195.83C426.918 196.042 426.757 196.316 426.757 196.653C426.757 196.945 426.865 197.18 427.081 197.358C427.297 197.536 427.645 197.682 428.126 197.795L429.513 198.114C430.316 198.299 430.914 198.585 431.308 198.972C431.702 199.358 431.899 199.86 431.899 200.477C431.899 201 431.748 201.466 431.445 201.875C431.145 202.28 430.727 202.598 430.189 202.83C429.655 203.061 429.036 203.176 428.331 203.176C427.354 203.176 426.556 202.968 425.939 202.551C425.321 202.131 424.943 201.534 424.803 200.761L426.445 200.511C426.547 200.939 426.757 201.263 427.075 201.483C427.393 201.699 427.808 201.807 428.32 201.807C428.876 201.807 429.321 201.691 429.655 201.46C429.988 201.225 430.155 200.939 430.155 200.602C430.155 200.33 430.053 200.1 429.848 199.915C429.647 199.729 429.339 199.589 428.922 199.494L427.445 199.17C426.63 198.985 426.028 198.689 425.638 198.284C425.251 197.879 425.058 197.366 425.058 196.744C425.058 196.229 425.202 195.778 425.49 195.392C425.778 195.006 426.176 194.705 426.683 194.489C427.191 194.269 427.772 194.159 428.428 194.159C429.371 194.159 430.113 194.364 430.655 194.773C431.196 195.178 431.554 195.722 431.729 196.403ZM437.841 194.273V195.636H433.074V194.273H437.841ZM434.352 192.182H436.051V200.438C436.051 200.767 436.1 201.015 436.199 201.182C436.297 201.345 436.424 201.456 436.58 201.517C436.739 201.574 436.911 201.602 437.097 201.602C437.233 201.602 437.352 201.593 437.455 201.574C437.557 201.555 437.636 201.54 437.693 201.528L438 202.932C437.902 202.97 437.761 203.008 437.58 203.045C437.398 203.087 437.17 203.11 436.898 203.114C436.451 203.121 436.034 203.042 435.648 202.875C435.261 202.708 434.949 202.451 434.71 202.102C434.472 201.754 434.352 201.316 434.352 200.79V192.182ZM443.303 203.176C442.484 203.176 441.77 202.989 441.161 202.614C440.551 202.239 440.077 201.714 439.74 201.04C439.403 200.366 439.234 199.578 439.234 198.676C439.234 197.771 439.403 196.979 439.74 196.301C440.077 195.623 440.551 195.097 441.161 194.722C441.77 194.347 442.484 194.159 443.303 194.159C444.121 194.159 444.835 194.347 445.445 194.722C446.054 195.097 446.528 195.623 446.865 196.301C447.202 196.979 447.371 197.771 447.371 198.676C447.371 199.578 447.202 200.366 446.865 201.04C446.528 201.714 446.054 202.239 445.445 202.614C444.835 202.989 444.121 203.176 443.303 203.176ZM443.308 201.75C443.839 201.75 444.278 201.61 444.626 201.33C444.975 201.049 445.232 200.676 445.399 200.21C445.57 199.744 445.655 199.231 445.655 198.67C445.655 198.114 445.57 197.602 445.399 197.136C445.232 196.667 444.975 196.29 444.626 196.006C444.278 195.722 443.839 195.58 443.308 195.58C442.774 195.58 442.331 195.722 441.979 196.006C441.63 196.29 441.371 196.667 441.2 197.136C441.034 197.602 440.95 198.114 440.95 198.67C440.95 199.231 441.034 199.744 441.2 200.21C441.371 200.676 441.63 201.049 441.979 201.33C442.331 201.61 442.774 201.75 443.308 201.75ZM449.267 203V194.273H450.898V195.693H451.006C451.188 195.212 451.485 194.837 451.898 194.568C452.311 194.295 452.805 194.159 453.381 194.159C453.964 194.159 454.453 194.295 454.847 194.568C455.244 194.841 455.538 195.216 455.727 195.693H455.818C456.027 195.227 456.358 194.856 456.812 194.58C457.267 194.299 457.809 194.159 458.438 194.159C459.229 194.159 459.875 194.407 460.375 194.903C460.879 195.4 461.131 196.148 461.131 197.148V203H459.432V197.307C459.432 196.716 459.271 196.288 458.949 196.023C458.627 195.758 458.242 195.625 457.795 195.625C457.242 195.625 456.812 195.795 456.506 196.136C456.199 196.473 456.045 196.907 456.045 197.438V203H454.352V197.199C454.352 196.725 454.205 196.345 453.909 196.057C453.614 195.769 453.229 195.625 452.756 195.625C452.434 195.625 452.136 195.71 451.864 195.881C451.595 196.047 451.377 196.28 451.21 196.58C451.047 196.879 450.966 197.225 450.966 197.619V203H449.267ZM467.169 203.176C466.309 203.176 465.569 202.992 464.947 202.625C464.33 202.254 463.853 201.733 463.516 201.062C463.182 200.388 463.016 199.598 463.016 198.693C463.016 197.799 463.182 197.011 463.516 196.33C463.853 195.648 464.322 195.116 464.925 194.733C465.531 194.35 466.239 194.159 467.05 194.159C467.542 194.159 468.019 194.241 468.482 194.403C468.944 194.566 469.358 194.822 469.726 195.17C470.093 195.519 470.383 195.972 470.595 196.528C470.807 197.081 470.913 197.754 470.913 198.545V199.148H463.976V197.875H469.249C469.249 197.428 469.158 197.032 468.976 196.688C468.794 196.339 468.538 196.064 468.209 195.864C467.883 195.663 467.5 195.562 467.061 195.562C466.584 195.562 466.167 195.68 465.811 195.915C465.459 196.146 465.186 196.449 464.993 196.824C464.804 197.195 464.709 197.598 464.709 198.034V199.028C464.709 199.612 464.811 200.108 465.016 200.517C465.224 200.926 465.514 201.239 465.885 201.455C466.256 201.667 466.69 201.773 467.186 201.773C467.508 201.773 467.802 201.727 468.067 201.636C468.332 201.542 468.561 201.402 468.754 201.216C468.947 201.03 469.095 200.801 469.197 200.528L470.805 200.818C470.677 201.292 470.446 201.706 470.112 202.062C469.783 202.415 469.368 202.689 468.868 202.886C468.372 203.08 467.805 203.176 467.169 203.176ZM472.798 203V194.273H474.44V195.659H474.531C474.69 195.189 474.971 194.82 475.372 194.551C475.777 194.278 476.236 194.142 476.747 194.142C476.853 194.142 476.978 194.146 477.122 194.153C477.27 194.161 477.385 194.17 477.469 194.182V195.807C477.401 195.788 477.279 195.767 477.105 195.744C476.931 195.718 476.757 195.705 476.582 195.705C476.181 195.705 475.823 195.79 475.509 195.96C475.198 196.127 474.952 196.36 474.77 196.659C474.588 196.955 474.497 197.292 474.497 197.67V203H472.798ZM485.479 196.403L483.939 196.676C483.875 196.479 483.772 196.292 483.632 196.114C483.496 195.936 483.31 195.79 483.075 195.676C482.84 195.562 482.547 195.506 482.195 195.506C481.714 195.506 481.312 195.614 480.99 195.83C480.668 196.042 480.507 196.316 480.507 196.653C480.507 196.945 480.615 197.18 480.831 197.358C481.047 197.536 481.395 197.682 481.876 197.795L483.263 198.114C484.066 198.299 484.664 198.585 485.058 198.972C485.452 199.358 485.649 199.86 485.649 200.477C485.649 201 485.498 201.466 485.195 201.875C484.895 202.28 484.477 202.598 483.939 202.83C483.405 203.061 482.786 203.176 482.081 203.176C481.104 203.176 480.306 202.968 479.689 202.551C479.071 202.131 478.693 201.534 478.553 200.761L480.195 200.511C480.297 200.939 480.507 201.263 480.825 201.483C481.143 201.699 481.558 201.807 482.07 201.807C482.626 201.807 483.071 201.691 483.405 201.46C483.738 201.225 483.905 200.939 483.905 200.602C483.905 200.33 483.803 200.1 483.598 199.915C483.397 199.729 483.089 199.589 482.672 199.494L481.195 199.17C480.38 198.985 479.778 198.689 479.388 198.284C479.001 197.879 478.808 197.366 478.808 196.744C478.808 196.229 478.952 195.778 479.24 195.392C479.528 195.006 479.926 194.705 480.433 194.489C480.941 194.269 481.522 194.159 482.178 194.159C483.121 194.159 483.863 194.364 484.405 194.773C484.946 195.178 485.304 195.722 485.479 196.403Z" fill="#E4E4E4" fill-opacity="0.8"/>
<path d="M398.727 285.636C395.606 285.636 392.848 285.083 390.455 283.977C388.076 282.856 386.22 281.318 384.886 279.364C383.553 277.394 382.894 275.152 382.909 272.636C382.894 270.667 383.28 268.848 384.068 267.182C384.856 265.5 385.932 264.098 387.295 262.977C388.674 261.841 390.212 261.121 391.909 260.818V260.545C389.682 259.97 387.909 258.72 386.591 256.795C385.273 254.856 384.621 252.652 384.636 250.182C384.621 247.818 385.22 245.705 386.432 243.841C387.644 241.977 389.311 240.508 391.432 239.432C393.568 238.356 396 237.818 398.727 237.818C401.424 237.818 403.833 238.356 405.955 239.432C408.076 240.508 409.742 241.977 410.955 243.841C412.182 245.705 412.803 247.818 412.818 250.182C412.803 252.652 412.129 254.856 410.795 256.795C409.477 258.72 407.727 259.97 405.545 260.545V260.818C407.227 261.121 408.742 261.841 410.091 262.977C411.439 264.098 412.515 265.5 413.318 267.182C414.121 268.848 414.53 270.667 414.545 272.636C414.53 275.152 413.848 277.394 412.5 279.364C411.167 281.318 409.311 282.856 406.932 283.977C404.568 285.083 401.833 285.636 398.727 285.636ZM398.727 280.636C400.833 280.636 402.652 280.295 404.182 279.614C405.712 278.932 406.894 277.97 407.727 276.727C408.561 275.485 408.985 274.03 409 272.364C408.985 270.606 408.53 269.053 407.636 267.705C406.742 266.356 405.523 265.295 403.977 264.523C402.447 263.75 400.697 263.364 398.727 263.364C396.742 263.364 394.97 263.75 393.409 264.523C391.864 265.295 390.644 266.356 389.75 267.705C388.871 269.053 388.439 270.606 388.455 272.364C388.439 274.03 388.841 275.485 389.659 276.727C390.492 277.97 391.682 278.932 393.227 279.614C394.773 280.295 396.606 280.636 398.727 280.636ZM398.727 258.545C400.394 258.545 401.871 258.212 403.159 257.545C404.462 256.879 405.485 255.947 406.227 254.75C406.97 253.553 407.348 252.152 407.364 250.545C407.348 248.97 406.977 247.598 406.25 246.432C405.523 245.25 404.515 244.341 403.227 243.705C401.939 243.053 400.439 242.727 398.727 242.727C396.985 242.727 395.462 243.053 394.159 243.705C392.856 244.341 391.848 245.25 391.136 246.432C390.424 247.598 390.076 248.97 390.091 250.545C390.076 252.152 390.432 253.553 391.159 254.75C391.902 255.947 392.924 256.879 394.227 257.545C395.53 258.212 397.03 258.545 398.727 258.545ZM422.165 275.455V270.818L442.619 238.455H445.983V245.636H443.71L428.256 270.091V270.455H455.801V275.455H422.165ZM444.074 285V274.045V271.886V238.455H449.438V285H444.074Z" fill="#E4E4E4"/>
<rect x="43" y="383" width="586" height="149" rx="22" fill="#121212" fill-opacity="0.6"/>
<path d="M89.5024 496.014C265.853 503.757 351.172 392.5 594.502 409.014" stroke="#E4E4E4" stroke-opacity="0.6" stroke-width="2"/>
<g filter="url(#filter1_d_907_60)">
<circle cx="327.5" cy="447.5" r="8.5" fill="#4ADE75"/>
</g>
<defs>
<filter id="filter0_i_907_60" x="43" y="45" width="586" height="90" filterUnits="userSpaceOnUse" color-interpolation-filters="sRGB">
<feFlood flood-opacity="0" result="BackgroundImageFix"/>
<feBlend mode="normal" in="SourceGraphic" in2="BackgroundImageFix" result="shape"/>
<feColorMatrix in="SourceAlpha" type="matrix" values="0 0 0 0 0 0 0 0 0 0 0 0 0 0 0 0 0 0 127 0" result="hardAlpha"/>
<feOffset/>
<feGaussianBlur stdDeviation="6.7"/>
<feComposite in2="hardAlpha" operator="arithmetic" k2="-1" k3="1"/>
<feColorMatrix type="matrix" values="0 0 0 0 1 0 0 0 0 1 0 0 0 0 1 0 0 0 0.1 0"/>
<feBlend mode="normal" in2="shape" result="effect1_innerShadow_907_60"/>
</filter>
<filter id="filter1_d_907_60" x="313.6" y="433.6" width="27.8" height="27.8" filterUnits="userSpaceOnUse" color-interpolation-filters="sRGB">
<feFlood flood-opacity="0" result="BackgroundImageFix"/>
<feColorMatrix in="SourceAlpha" type="matrix" values="0 0 0 0 0 0 0 0 0 0 0 0 0 0 0 0 0 0 127 0" result="hardAlpha"/>
<feOffset/>
<feGaussianBlur stdDeviation="2.7"/>
<feComposite in2="hardAlpha" operator="out"/>
<feColorMatrix type="matrix" values="0 0 0 0 0.776938 0 0 0 0 0.938461 0 0 0 0 0.823867 0 0 0 0.78 0"/>
<feBlend mode="normal" in2="BackgroundImageFix" result="effect1_dropShadow_907_60"/>
<feBlend mode="normal" in="SourceGraphic" in2="effect1_dropShadow_907_60" result="shape"/>
</filter>
<linearGradient id="paint0_linear_907_60" x1="334.5" y1="0" x2="334.5" y2="637" gradientUnits="userSpaceOnUse">
<stop offset="0.245192" stop-color="#5A5A5A"/>
<stop offset="1" stop-color="#0D0D0D"/>
</linearGradient>
<radialGradient id="paint1_radial_907_60" cx="0" cy="0" r="1" gradientUnits="userSpaceOnUse" gradientTransform="translate(108 90) rotate(90) scale(25)">
<stop offset="0.956731" stop-color="#0F0F0F"/>
<stop offset="1" stop-color="#757575" stop-opacity="0"/>
</radialGradient>
<linearGradient id="paint2_linear_907_60" x1="186" y1="171" x2="186" y2="353" gradientUnits="userSpaceOnUse">
<stop stop-color="#1E1E1E" stop-opacity="0.87"/>
<stop offset="1" stop-color="#121212"/>
</linearGradient>
<linearGradient id="paint3_linear_907_60" x1="486" y1="171" x2="486" y2="353" gradientUnits="userSpaceOnUse">
<stop stop-color="#1E1E1E" stop-opacity="0.87"/>
<stop offset="1" stop-color="#121212"/>
</linearGradient>
</defs>
</svg>
